<svg xmlns="http://www.w3.org/2000/svg"  viewBox="0 0 48 48" width="48px" height="48px"><path fill="#1e4384" d="M24.158,4.604c3.515-0.224,7.044-0.421,10.563-0.273c0.861,0.036,1.731,0.078,2.557,0.325	c1.657,0.496,2.957,1.756,4.187,2.973c0.735,0.728,1.175,1.421,1.567,2.379c0.383,0.935,0.384,1.976,0.379,2.986	c-0.031,6.985,0.253,14.032,0.222,21.017c-0.01,2.321-0.078,4.822-1.473,6.677c-1.03,1.37-2.666,2.183-4.342,2.546	c-1.675,0.363-3.408,0.319-5.122,0.262c-4.051-0.134-8.114-0.33-12.152,0.021c-2.605,0.227-5.214,0.682-7.819,0.462	s-5.293-1.231-6.823-3.352c-1.319-1.829-1.599-4.211-1.513-6.464s0.495-4.497,0.374-6.749C4.698,26.231,4.637,14.878,5.385,10.43	c0.196-1.168,0.09-3.026,0.919-3.871c0.47-0.478,1.088-0.78,1.708-1.033C12.626,3.638,19.011,4.932,24.158,4.604z"/><path fill="#febf10" d="M12.553,20.71c4.369-5.299,9.884-11.274,15.225-15.59c0.073-0.059,0.15-0.12,0.243-0.136	c0.165-0.029,0.317,0.089,0.443,0.201C33.53,9.662,38.468,15.418,42.738,20.66c0.065,0.08,0.133,0.166,0.143,0.269	c0.019,0.189-0.156,0.334-0.311,0.444c-5.627,3.98-9.678,11.039-15.269,15.068c-1.072-1.866-2.498-3.689-4.076-5.152	C19.848,28.156,15.347,24.373,12.553,20.71z"/><path d="M4.587,36.152c1.428-3.093,3.929-5.857,5.902-8.634c2.35,3.269,4.037,7.116,5.152,10.985L4.887,38.585L4.587,36.152z"/><path fill="#d6e5e5" d="M43.22,38.085C34.15,38.112,25.08,38.024,16.009,38c-1.141-3.808-2.773-7.491-5.088-10.735	c-0.228-0.32-0.635-0.32-0.863,0c-2.023,2.835-4.412,5.456-5.902,8.634c-0.272,0.579,0.59,1.088,0.864,0.505	c1.382-2.948,3.533-5.418,5.453-8.022c1.995,2.948,3.448,6.217,4.49,9.616c-1.419-0.003-2.838-0.009-4.257-0.007	c-1.087,0.001-2.169,0.004-3.256-0.045c-0.846-0.038-1.889-0.169-2.696,0.157c-0.589,0.238-0.332,1.205,0.266,0.964	c0.68-0.274,1.562-0.157,2.277-0.127c0.948,0.039,1.889,0.054,2.839,0.052c2.665-0.004,5.329,0.001,7.994,0.011	c5.365,0.02,10.73,0.058,16.095,0.076c2.998,0.01,5.997,0.015,8.995,0.006C43.863,39.083,43.864,38.083,43.22,38.085z"/><path d="M42.468,19.541c-3.039-3.707-6.161-7.355-9.522-10.776c-0.843-0.858-1.702-1.701-2.579-2.524	c-0.403-0.378-0.81-0.751-1.221-1.12c-0.308-0.276-0.664-0.675-1.123-0.638c-0.427,0.035-0.777,0.427-1.087,0.684	c-0.442,0.365-0.88,0.736-1.312,1.112c-0.892,0.775-1.765,1.571-2.623,2.384c-3.854,3.649-7.42,7.602-10.799,11.694	c-0.01,0.011-0.011,0.024-0.019,0.036c-0.159,0.136-0.23,0.348-0.061,0.568c2.179,2.834,4.815,5.277,7.452,7.676	c1.285,1.169,2.617,2.3,3.844,3.53c1.346,1.349,2.495,2.878,3.452,4.525c0.126,0.216,0.465,0.339,0.684,0.179	c3.357-2.442,5.994-5.677,8.721-8.77c1.4-1.588,2.83-3.158,4.408-4.574c0.736-0.66,1.57-1.202,2.308-1.852	C43.837,20.93,42.993,20.181,42.468,19.541z M42.163,21.051c-0.057,0.064-0.161,0.117-0.23,0.168	c-0.162,0.12-0.322,0.242-0.481,0.366c-0.405,0.315-0.8,0.641-1.187,0.978c-1.44,1.259-2.755,2.654-4.029,4.078	c-2.8,3.127-5.438,6.511-8.8,9.065c-0.844-1.379-1.818-2.68-2.93-3.854c-1.219-1.288-2.592-2.44-3.905-3.631	c-2.593-2.354-5.227-4.745-7.4-7.507c2.69-3.24,5.498-6.385,8.474-9.365c1.554-1.556,3.153-3.067,4.818-4.504	c0.379-0.327,0.762-0.651,1.148-0.97c0.188-0.155,0.333-0.348,0.551-0.264c0.213,0.082,0.489,0.438,0.653,0.586	c0.799,0.727,1.581,1.472,2.35,2.23c3.182,3.139,6.138,6.501,9.001,9.931c0.335,0.401,0.669,0.803,1.001,1.207	c0.165,0.2,0.329,0.399,0.493,0.599c0.135,0.165,0.507,0.469,0.556,0.68C42.294,21.048,42.303,20.892,42.163,21.051z"/><path fill="#14b6b9" d="M18.593,20.28c0.621-0.982,1.564-2.175,2.555-2.783c0.052-0.032,0.107-0.064,0.168-0.064	c0.083-0.001,0.153,0.057,0.216,0.111c0.972,0.844,1.943,1.688,2.915,2.533c-1.029,0.929-2.021,1.899-2.973,2.908	C20.513,22.082,19.553,21.181,18.593,20.28z"/><path fill="#14b6b9" d="M24.446,14.697c0.717-0.803,1.702-1.659,2.419-2.462c0.102-0.114,0.214-0.234,0.363-0.266	c0.189-0.04,0.373,0.074,0.531,0.185c0.977,0.687,1.876,1.486,2.673,2.376c-1.065,0.967-2.13,1.935-3.195,2.902	C26.49,16.69,25.194,15.439,24.446,14.697z"/><path fill="#14b6b9" d="M24,25.241c2.958-3.191,5.615-5.784,8.799-8.749c0.727,0.623,1.197,1.629,1.924,2.252	c0.107,0.092,0.223,0.202,0.222,0.343c0,0.121-0.088,0.222-0.17,0.31c-2.969,3.197-5.578,5.308-8.914,8.12	c-0.268-0.822-1.031-1.912-1.841-2.213L24,25.241z"/><path d="M24.8,19.722c-0.618-0.537-1.237-1.074-1.855-1.612c-0.324-0.281-0.646-0.565-0.972-0.844	c-0.316-0.271-0.633-0.44-1.037-0.223c-0.581,0.311-1.09,0.826-1.524,1.314c-0.462,0.52-0.877,1.084-1.25,1.67	c-0.015,0.024-0.016,0.046-0.026,0.069c-0.002,0.004-0.003,0.008-0.004,0.011c-0.023,0.054-0.04,0.107-0.043,0.158	c-0.002,0.018,0.004,0.036,0.005,0.054c0.003,0.038,0.005,0.075,0.018,0.11c0.013,0.04,0.039,0.077,0.066,0.115	c0.008,0.01,0.014,0.022,0.022,0.032c0.015,0.019,0.021,0.039,0.04,0.057c0.96,0.901,1.92,1.803,2.88,2.704	c0.193,0.181,0.517,0.202,0.707,0c0.953-1.008,1.944-1.978,2.973-2.908C24.99,20.257,24.997,19.893,24.8,19.722z M21.459,22.285	c-0.737-0.692-1.475-1.385-2.212-2.077c0.269-0.397,0.552-0.784,0.872-1.144c0.206-0.232,0.422-0.454,0.653-0.661	c0.135-0.121,0.322-0.31,0.509-0.417c0.057,0.048,0.12,0.105,0.162,0.141c0.132,0.115,0.265,0.23,0.397,0.345	c0.25,0.217,0.501,0.435,0.751,0.652c0.371,0.322,0.741,0.644,1.111,0.965C22.933,20.799,22.185,21.531,21.459,22.285z"/><path d="M30.787,14.177c-0.494-0.548-1.023-1.064-1.588-1.54c-0.288-0.242-0.585-0.475-0.887-0.698	c-0.296-0.219-0.604-0.464-0.989-0.477c-0.375-0.012-0.642,0.237-0.877,0.493c-0.245,0.268-0.5,0.526-0.759,0.781	c-0.537,0.53-1.089,1.047-1.594,1.608c-0.044,0.049-0.069,0.101-0.091,0.153c-0.003,0.005-0.006,0.009-0.009,0.014	c-0.007,0.019-0.011,0.037-0.016,0.056c-0.053,0.155-0.037,0.332,0.115,0.482c0.925,0.918,1.867,1.818,2.792,2.736	c0.198,0.197,0.506,0.183,0.707,0c1.065-0.967,2.13-1.935,3.195-2.902C30.994,14.696,30.961,14.37,30.787,14.177z M25.155,14.691	c0.32-0.332,0.641-0.662,0.971-0.985c0.228-0.223,0.457-0.446,0.679-0.675c0.106-0.109,0.212-0.22,0.315-0.333	c0.044-0.048,0.086-0.097,0.131-0.144c0.031-0.033,0.072-0.058,0.081-0.074c0.092,0.032,0.195,0.12,0.262,0.167	c0.129,0.092,0.256,0.185,0.382,0.281c0.245,0.187,0.484,0.384,0.716,0.587c0.359,0.312,0.686,0.658,1.015,1.001	c-0.818,0.743-1.637,1.487-2.455,2.23C26.554,16.059,25.852,15.377,25.155,14.691z"/><path d="M34.49,17.762c-0.437-0.552-0.81-1.147-1.336-1.623c-0.206-0.186-0.501-0.192-0.707,0c-3.028,2.821-5.983,5.715-8.799,8.749	c-0.006,0.006-0.007,0.013-0.012,0.019c-0.117,0.107-0.183,0.265-0.118,0.467c0.138,0.427,0.64,0.527,0.946,0.829	c0.407,0.401,0.726,0.909,0.916,1.448c0.131,0.372,0.539,0.471,0.836,0.221c2.223-1.872,4.47-3.72,6.568-5.734	c0.511-0.491,1.014-0.991,1.507-1.501c0.377-0.389,1.158-0.944,1.156-1.549C35.445,18.538,34.798,18.151,34.49,17.762z M34.141,19.345c-0.905,0.961-1.844,1.891-2.811,2.79c-1.707,1.586-3.499,3.077-5.284,4.576c-0.31-0.605-0.741-1.143-1.29-1.532	c2.578-2.753,5.266-5.396,8.02-7.973c0.29,0.326,0.553,0.671,0.82,1.021c0.167,0.219,0.336,0.438,0.528,0.636	c-0.02-0.021,0.324,0.349,0.299,0.181C34.43,19.09,34.179,19.306,34.141,19.345z"/><path d="M24.158,5.104c2.781-0.176,5.565-0.337,8.352-0.323c1.337,0.007,2.748-0.037,4.065,0.22 c1.213,0.237,2.244,0.889,3.167,1.689c0.856,0.743,1.767,1.545,2.348,2.529c0.665,1.126,0.82,2.27,0.821,3.558 c0.002,2.75,0.021,5.5,0.067,8.249c0.046,2.764,0.104,5.528,0.135,8.293c0.028,2.514,0.192,5.109-0.114,7.611 c-0.296,2.424-1.481,4.398-3.796,5.356c-2.396,0.992-5.094,0.76-7.624,0.673c-2.769-0.096-5.542-0.196-8.313-0.102 c-2.793,0.095-5.553,0.574-8.343,0.668c-2.295,0.078-4.667-0.204-6.665-1.418c-2.046-1.243-3.063-3.341-3.309-5.672 c-0.272-2.569,0.269-5.129,0.329-7.694c0.025-1.058-0.041-2.123-0.048-3.181c-0.02-3.195,0.024-6.394,0.172-9.586 c0.073-1.568,0.16-3.142,0.36-4.7c0.095-0.738,0.197-1.469,0.267-2.21c0.096-1.023,0.227-1.979,1.153-2.573 c1.89-1.212,4.426-1.431,6.609-1.502c2.351-0.076,4.701,0.093,7.05,0.151C21.948,5.169,23.054,5.17,24.158,5.104 c0.64-0.038,0.644-1.038,0-1C19.298,4.394,14.29,3.333,9.5,4.52C8.413,4.79,7.25,5.175,6.35,5.86 c-0.812,0.618-1.1,1.485-1.237,2.466c-0.224,1.602-0.412,3.233-0.54,4.847c-0.283,3.561-0.336,7.144-0.345,10.714 c-0.003,1.097-0.008,2.196,0.025,3.293c0.075,2.449-0.319,4.851-0.374,7.293c-0.053,2.32,0.314,4.782,1.779,6.659 c1.366,1.749,3.485,2.747,5.629,3.153c2.745,0.52,5.532,0.11,8.279-0.173c2.963-0.305,5.935-0.328,8.91-0.252 c2.827,0.072,5.742,0.406,8.555,0.016c2.316-0.321,4.642-1.357,5.89-3.427c1.242-2.059,1.207-4.608,1.213-6.932 c0.007-2.967-0.04-5.934-0.093-8.901c-0.052-2.928-0.11-5.856-0.128-8.785c-0.016-2.569,0.343-5.279-1.208-7.504 c-0.672-0.964-1.593-1.802-2.495-2.548c-0.926-0.767-1.957-1.417-3.14-1.694c-1.316-0.308-2.724-0.283-4.069-0.3 c-1.475-0.019-2.95,0.015-4.424,0.075c-1.474,0.061-2.947,0.15-4.42,0.244C23.519,4.145,23.514,5.145,24.158,5.104z"/></svg>